<svg width="18" height="20" viewBox="0 0 18 20" fill="none" xmlns="http://www.w3.org/2000/svg">
<path d="M9.33105 0.424805C11.8997 0.424805 14.0522 2.30191 14.5166 4.80762C14.6369 4.77027 14.7643 4.74707 14.8984 4.74707C15.6546 4.74724 16.2665 5.37461 16.2666 6.14258L16.2676 7.5459C16.2676 8.20266 15.8201 8.75357 15.2178 8.90039C15.0616 9.29004 14.6918 9.56934 14.251 9.56934H12.208C11.99 9.79763 11.7477 10.0001 11.4873 10.1777C14.6607 10.7055 17.0858 13.518 17.0752 16.8994L17.0684 19.1338C17.0674 19.3464 16.919 19.5252 16.7207 19.5664L16.6328 19.5752L12.208 19.5615H12.2061L8.98926 19.5508L1.35742 19.5283C1.24137 19.5281 1.13163 19.4799 1.05078 19.3975C0.969354 19.3143 0.923722 19.2011 0.924805 19.084L0.931641 16.8506C0.941456 13.4879 3.36396 10.6957 6.51953 10.1699C5.33137 9.35037 4.54504 7.96924 4.54492 6.39844C4.54492 3.88764 6.54608 1.84206 9.00977 1.8418C11.4737 1.8418 13.4756 3.88729 13.4756 6.39844C13.4755 7.23338 13.2486 8.01166 12.8633 8.68457H14.1162C13.7624 8.43281 13.5283 8.01937 13.5283 7.54688V6.14258C13.5284 5.88132 13.6021 5.63946 13.7246 5.43164C13.5401 3.11713 11.6334 1.30957 9.33105 1.30957H8.68652C6.38934 1.30957 4.48418 3.11026 4.29297 5.43457C4.41446 5.64209 4.48921 5.88225 4.48926 6.14258V7.54785C4.48925 8.31603 3.87647 8.94336 3.12012 8.94336C2.36399 8.9431 1.75196 8.31587 1.75195 7.54785V6.14355C1.75207 5.37563 2.36406 4.74831 3.12012 4.74805C3.25394 4.74805 3.38231 4.77136 3.50293 4.80859C3.97399 2.29398 6.123 0.424805 8.68652 0.424805H9.33105ZM7.61035 10.959C4.41039 10.959 1.81056 13.6024 1.80078 16.8545L1.7959 18.6455C6.4203 18.6592 4.98645 18.655 8.99316 18.668C13.0062 18.6796 11.5756 18.6738 16.2002 18.6875L16.2061 16.8975L16.1992 16.5938C16.0531 13.4728 13.5244 10.9765 10.4316 10.9668L7.61035 10.959ZM9.00977 2.72656C7.02811 2.72656 5.41309 4.37225 5.41309 6.39844C5.41326 8.42438 7.02924 10.0703 9.00977 10.0703C9.66919 10.0703 10.2875 9.88763 10.8193 9.56934H9.57031C9.32862 9.56934 9.13477 9.36986 9.13477 9.12695C9.13494 8.88419 9.32873 8.68457 9.57031 8.68457H11.8184C12.3096 8.05617 12.6054 7.26238 12.6055 6.39844C12.6055 4.37228 10.9911 2.72679 9.00977 2.72656ZM3.12109 5.63184C2.84733 5.63184 2.62221 5.85943 2.62207 6.14258V7.54688C2.62207 7.83014 2.84725 8.05762 3.12109 8.05762C3.39476 8.05739 3.62012 7.83 3.62012 7.54688V6.14258C3.61998 5.85957 3.39467 5.63206 3.12109 5.63184ZM14.8994 5.63184C14.6257 5.63184 14.4005 5.85943 14.4004 6.14258V7.54688C14.4004 7.83014 14.6256 8.05762 14.8994 8.05762C15.173 8.05736 15.3984 7.82998 15.3984 7.54688V6.14258C15.3983 5.85959 15.173 5.6321 14.8994 5.63184Z" fill="#282C5D" stroke="#282C5D" stroke-width="0.15"/>
</svg>
