<svg width="20" height="20" viewBox="0 0 20 20" fill="none" xmlns="http://www.w3.org/2000/svg">
<path d="M15 0.429688H5.00003C2.00003 0.429688 3.05176e-05 2.42969 3.05176e-05 5.42969V11.4297C3.05176e-05 14.4297 2.00003 16.4297 5.00003 16.4297V18.5597C5.00003 19.3597 5.89003 19.8397 6.55003 19.3897L11 16.4297H15C18 16.4297 20 14.4297 20 11.4297V5.42969C20 2.42969 18 0.429688 15 0.429688ZM10 12.5997C9.58003 12.5997 9.25003 12.2597 9.25003 11.8497C9.25003 11.4397 9.58003 11.0997 10 11.0997C10.42 11.0997 10.75 11.4397 10.75 11.8497C10.75 12.2597 10.42 12.5997 10 12.5997ZM11.26 8.4497C10.87 8.7097 10.75 8.8797 10.75 9.1597V9.3697C10.75 9.7797 10.41 10.1197 10 10.1197C9.59003 10.1197 9.25003 9.7797 9.25003 9.3697V9.1597C9.25003 7.99969 10.1 7.42969 10.42 7.20969C10.79 6.95969 10.91 6.78969 10.91 6.52969C10.91 6.02969 10.5 5.61969 10 5.61969C9.50003 5.61969 9.09003 6.02969 9.09003 6.52969C9.09003 6.93969 8.75003 7.27969 8.34003 7.27969C7.93003 7.27969 7.59003 6.93969 7.59003 6.52969C7.59003 5.19969 8.67003 4.11969 10 4.11969C11.33 4.11969 12.41 5.19969 12.41 6.52969C12.41 7.66969 11.57 8.2397 11.26 8.4497Z" fill="#282C5D"/>
</svg>
