<svg width="19" height="23" viewBox="0 0 19 23" fill="none" xmlns="http://www.w3.org/2000/svg">
<path fill-rule="evenodd" clip-rule="evenodd" d="M7.96638 12.1778V7.69878H5.82684L9.4997 3.09174L13.1726 7.69785H11.0348V12.1787L7.9662 12.1797L7.96638 12.1778ZM15.8434 22.998H17.9998C18.5521 22.998 18.9998 22.5503 18.9998 21.998V19.832C18.1286 19.832 17.3388 20.1877 16.7698 20.7585C16.198 21.332 15.8434 22.1242 15.8434 22.998ZM0 19.832V21.998C0 22.5503 0.447715 22.998 1 22.998H3.1564C3.1564 22.1242 2.80178 21.332 2.23273 20.7612C1.66007 20.1868 0.870285 19.832 0 19.832ZM3.1564 12.921H0.999999C0.447714 12.921 0 13.3687 0 13.921V16.087C0.871188 16.087 1.66097 15.7313 2.23 15.1578C2.80176 14.5861 3.1564 13.7939 3.1564 12.921ZM16.2461 15.6833C16.9499 16.3893 17.9225 16.8266 19 16.8266V19.0943C17.9235 19.0943 16.95 19.5308 16.2461 20.2377C15.5423 20.9437 15.1044 21.9219 15.1044 23L3.89572 22.9982C3.89572 21.9202 3.46058 20.9419 2.75583 20.2359C2.052 19.5299 1.07948 19.0925 0.000324231 19.0925V16.8248C1.07687 16.8248 2.0503 16.3883 2.75583 15.6815C3.45967 14.9727 3.89572 13.9973 3.89572 12.9175H15.1044C15.1044 13.9992 15.5423 14.9746 16.2461 15.6833ZM12.9232 17.9591C12.9232 16.068 11.3853 14.528 9.5 14.528C7.61473 14.528 6.07935 16.0679 6.07935 17.9591C6.07935 19.8503 7.61457 21.3928 9.5 21.3928C11.3854 21.3928 12.9232 19.8502 12.9232 17.9591ZM15.8434 12.9209C15.8434 13.7948 16.198 14.587 16.767 15.1578C17.3388 15.7313 18.1286 16.087 18.997 16.087L18.9977 13.9212C18.9978 13.3688 18.55 12.9209 17.9976 12.9209L15.8434 12.9209ZM9.49977 17.5879C9.39754 17.5879 9.30255 17.5462 9.23561 17.4763C9.16595 17.4091 9.12434 17.3139 9.12434 17.2113C9.12434 17.1088 9.16595 17.0135 9.23561 16.9464C9.30256 16.8765 9.39755 16.8347 9.49977 16.8347C9.58119 16.8347 9.65537 16.8601 9.71508 16.9046C9.7775 16.9509 9.82816 17.0135 9.8544 17.0879C9.92406 17.2803 10.1321 17.381 10.3248 17.3111C10.5166 17.2413 10.617 17.0298 10.5474 16.8393C10.4687 16.6206 10.3248 16.43 10.1394 16.3003C10.0561 16.2422 9.96566 16.1932 9.86796 16.1605V15.9827C9.86796 15.7785 9.70331 15.6106 9.49703 15.6106C9.29348 15.6106 9.12611 15.7776 9.12611 15.9827V16.1569C8.96599 16.2123 8.82485 16.3057 8.70906 16.4219C8.50732 16.6242 8.37975 16.9046 8.37975 17.2113C8.37975 17.518 8.5046 17.7993 8.70906 18.0008C8.9108 18.2031 9.19033 18.3284 9.49611 18.3284C9.59834 18.3284 9.69332 18.3701 9.76207 18.44C9.82901 18.5099 9.87334 18.6024 9.87334 18.7068C9.87334 18.8093 9.82901 18.9046 9.76207 18.9717C9.69241 19.0416 9.60013 19.0833 9.49611 19.0833C9.41469 19.0833 9.3405 19.0579 9.2808 19.0135C9.21837 18.969 9.16771 18.9046 9.14148 18.8302C9.07182 18.6396 8.86104 18.5398 8.66923 18.6069C8.47925 18.6768 8.37703 18.8882 8.44669 19.0806C8.52539 19.2993 8.67104 19.4872 8.85649 19.6196C8.93972 19.6777 9.03019 19.7267 9.12519 19.7612V19.9354C9.12519 20.1396 9.29165 20.3075 9.49611 20.3075C9.69966 20.3075 9.86703 20.1423 9.86703 19.9354V19.7612C10.0272 19.7059 10.1683 19.6124 10.2859 19.4962C10.4876 19.2939 10.6125 19.0135 10.6125 18.7068C10.6125 18.3983 10.4876 18.1188 10.2859 17.9173C10.086 17.7132 9.80735 17.5879 9.49977 17.5879ZM16.1789 0H2.82059V1.74227H16.1815V0H16.1789Z" fill="#282C5D"/>
</svg>
