<svg width="28" height="26" viewBox="0 0 28 26" fill="none" xmlns="http://www.w3.org/2000/svg">
<g clip-path="url(#clip0_665_1269)">
<path d="M26.5436 4.80279L1.51127 15.6979C1.1449 15.8573 1.15724 16.3876 1.53062 16.5295L9.12271 19.4129C9.26563 19.4671 9.42604 19.443 9.54723 19.3491L20.2101 11.081C20.6316 10.7542 21.1604 11.3184 20.8162 11.7276L13.7479 20.1311C13.5481 20.3686 13.643 20.735 13.9322 20.8426L23.6733 24.4667C23.9356 24.5642 24.2204 24.3944 24.2633 24.1148L27.1557 5.28356C27.2092 4.93534 26.8633 4.66364 26.5436 4.80279Z" fill="#C0C4B8"/>
<path d="M9.35254 19.5001L20.6921 10.666C21.1091 10.3411 21.6377 10.8928 21.3046 11.3052L13.7788 20.6208L11.9325 25.6071C11.8449 25.8435 11.6218 26.0001 11.3725 26.0001C11.0963 26.0001 10.856 25.8085 10.7912 25.5366L9.35254 19.5001Z" fill="#ABADA9"/>
<path d="M15.3278 21.293L11.7869 25.7758L13.336 20.6206L15.3278 21.293Z" fill="#848581"/>
<path d="M9.35248 14.3448C13.2637 14.3448 16.4344 11.1336 16.4344 7.17241C16.4344 3.2112 13.2637 0 9.35248 0C5.44121 0 2.27051 3.2112 2.27051 7.17241C2.27051 11.1336 5.44121 14.3448 9.35248 14.3448Z" fill="#FFE73B"/>
<path d="M9.35249 12.9999C12.5304 12.9999 15.1066 10.3908 15.1066 7.17231C15.1066 3.95383 12.5304 1.34473 9.35249 1.34473C6.17459 1.34473 3.59839 3.95383 3.59839 7.17231C3.59839 10.3908 6.17459 12.9999 9.35249 12.9999Z" fill="#F9B52B"/>
<path d="M9.3525 11.655C11.797 11.655 13.7787 9.64797 13.7787 7.17221C13.7787 4.69645 11.797 2.68945 9.3525 2.68945C6.90796 2.68945 4.92627 4.69645 4.92627 7.17221C4.92627 9.64797 6.90796 11.655 9.3525 11.655Z" fill="#FCC029"/>
<path d="M8.35189 7.73702C8.53571 7.73702 8.66832 7.89517 8.73658 8.06798C8.77119 8.15552 8.81789 8.22559 8.87667 8.27813C8.93545 8.32887 9.00113 8.36478 9.07377 8.38581C9.14636 8.40683 9.21988 8.41732 9.29419 8.41732C9.30473 8.41732 9.31508 8.41588 9.32531 8.41557V9.47323C9.31761 9.47413 9.30991 9.47583 9.30198 9.47583C9.19168 9.47583 9.10227 9.38528 9.10227 9.27361V8.95973C9.01007 8.94956 8.91836 8.93333 8.82736 8.90849C8.6735 8.86649 8.53346 8.79817 8.40722 8.70363C8.28276 8.60734 8.1833 8.48035 8.10898 8.32278C8.07512 8.25025 8.04918 8.17027 8.03073 8.08286C7.99111 7.8949 8.1513 7.73706 8.34109 7.73702H8.35189ZM9.32531 5.59107C9.32358 5.59107 9.32186 5.59107 9.32013 5.59107C9.20602 5.59107 9.11179 5.61299 9.03743 5.65675C8.96484 5.70054 8.91124 5.76007 8.87667 5.83538C8.84378 5.91065 8.82736 5.99735 8.82736 6.09538C8.82736 6.18997 8.84467 6.27313 8.87923 6.34494C8.91553 6.41496 8.97608 6.47888 9.0608 6.53667C9.12896 6.58226 9.21731 6.62789 9.32531 6.67456V7.3203C9.30278 7.31124 9.2795 7.30201 9.25529 7.29313C9.03225 7.21083 8.83688 7.12064 8.66917 7.0226C8.50146 6.92277 8.37093 6.79931 8.27753 6.65223C8.18591 6.50515 8.1401 6.31952 8.1401 6.09538C8.1401 5.88003 8.18936 5.6935 8.28793 5.53594C8.38819 5.37657 8.52739 5.25401 8.70546 5.16821C8.83758 5.10326 8.98546 5.06238 9.14897 5.04561V4.68623C9.14897 4.58227 9.22598 4.49719 9.32531 4.48486V5.59107Z" fill="#FFE73B"/>
<path d="M9.41598 6.7129C9.64074 6.79695 9.83612 6.88975 10.0021 6.99133C10.1681 7.09111 10.2969 7.21372 10.3885 7.35905C10.4802 7.50438 10.526 7.68826 10.526 7.91065C10.526 8.13828 10.4741 8.33091 10.3704 8.48848C10.2684 8.64609 10.1248 8.76605 9.93987 8.84835C9.80894 8.90659 9.66278 8.94339 9.50154 8.96042V9.27386C9.50154 9.3775 9.42439 9.46168 9.3252 9.47347V8.41581C9.43235 8.4125 9.5223 8.39291 9.59493 8.35453C9.67615 8.31248 9.7367 8.25385 9.77645 8.17854C9.81797 8.10148 9.83873 8.01393 9.83873 7.9159C9.83873 7.81606 9.81969 7.72941 9.78163 7.65585C9.74533 7.58229 9.68394 7.51666 9.5975 7.45883C9.52708 7.41082 9.43621 7.36492 9.3252 7.32054V6.6748C9.3541 6.68731 9.3842 6.70031 9.41598 6.7129ZM9.34981 4.48291C9.46082 4.48291 9.5508 4.57404 9.5508 4.68647V5.05374C9.64601 5.06746 9.73515 5.0892 9.81797 5.12117C9.96492 5.17545 10.0903 5.25511 10.194 5.36019C10.2995 5.46526 10.3799 5.59481 10.4352 5.74893C10.4563 5.80532 10.4738 5.86468 10.4871 5.92712C10.527 6.11428 10.3675 6.27162 10.1784 6.27162H10.1248C9.96549 6.27162 9.84444 6.13763 9.79982 5.98271C9.77561 5.89865 9.741 5.82774 9.69607 5.76995C9.6511 5.71042 9.59666 5.66573 9.53265 5.63596C9.47179 5.60687 9.40261 5.59194 9.3252 5.59132V4.48511C9.3333 4.48408 9.34144 4.48291 9.34981 4.48291Z" fill="#FFE73B"/>
</g>
<defs>
<clipPath id="clip0_665_1269">
<rect width="27" height="26" fill="white" transform="translate(0.5)"/>
</clipPath>
</defs>
</svg>
