<svg width="20" height="20" viewBox="0 0 20 20" fill="none" xmlns="http://www.w3.org/2000/svg">
<path d="M10.0165 17.1081C8.07481 17.1081 6.13314 16.7998 4.29148 16.1831C3.59148 15.9414 3.05814 15.4498 2.82481 14.8081C2.58314 14.1664 2.66648 13.4581 3.04981 12.8248L4.00814 11.2331C4.20814 10.8998 4.39148 10.2331 4.39148 9.84142V7.4331C4.39148 4.33311 6.91648 1.80811 10.0165 1.80811C13.1165 1.80811 15.6415 4.33311 15.6415 7.4331V9.84142C15.6415 10.2248 15.8248 10.8998 16.0248 11.2414L16.9748 12.8248C17.3332 13.4248 17.3998 14.1498 17.1582 14.8081C16.9165 15.4664 16.3915 15.9664 15.7332 16.1831C13.8998 16.7998 11.9582 17.1081 10.0165 17.1081ZM10.0165 3.05811C7.60814 3.05811 5.64148 5.01644 5.64148 7.4331V9.84142C5.64148 10.4498 5.39148 11.3498 5.08314 11.8748L4.12481 13.4664C3.94148 13.7748 3.89148 14.0998 3.99981 14.3748C4.09981 14.6581 4.34981 14.8748 4.69148 14.9914C8.17481 16.1581 11.8665 16.1581 15.3498 14.9914C15.6498 14.8914 15.8832 14.6664 15.9915 14.3664C16.0998 14.0664 16.0748 13.7414 15.9082 13.4664L14.9498 11.8748C14.6332 11.3331 14.3915 10.4414 14.3915 9.83309V7.4331C14.3915 5.01644 12.4332 3.05811 10.0165 3.05811Z" fill="#282C5D"/>
<path d="M11.5663 3.2834C11.508 3.2834 11.4497 3.27507 11.3913 3.2584C11.1497 3.19173 10.9163 3.14173 10.6913 3.1084C9.983 3.01673 9.29966 3.06673 8.658 3.2584C8.42466 3.3334 8.17469 3.2584 8.01635 3.0834C7.85802 2.9084 7.80802 2.6584 7.89969 2.4334C8.24135 1.5584 9.07466 0.983398 10.0247 0.983398C10.9747 0.983398 11.808 1.55007 12.1497 2.4334C12.233 2.6584 12.1913 2.9084 12.033 3.0834C11.908 3.21673 11.733 3.2834 11.5663 3.2834Z" fill="#282C5D"/>
<path d="M10.0163 19.0083C9.19133 19.0083 8.39133 18.675 7.80802 18.0916C7.22469 17.5083 6.89136 16.7083 6.89136 15.8833H8.14136C8.14136 16.375 8.34133 16.8583 8.69133 17.2083C9.04133 17.5583 9.52467 17.7583 10.0163 17.7583C11.0497 17.7583 11.8913 16.9166 11.8913 15.8833H13.1413C13.1413 17.6083 11.7413 19.0083 10.0163 19.0083Z" fill="#282C5D"/>
</svg>
