<svg width="27" height="27" viewBox="0 0 27 27" fill="none" xmlns="http://www.w3.org/2000/svg">
<path d="M8.31104 7.47949H23.2705M8.31104 13.2971H23.2705M8.31104 19.1146H23.2705" stroke="#282C5D" stroke-width="1.66216" stroke-linecap="round" stroke-linejoin="round"/>
<path d="M4.1553 8.3106C4.61429 8.3106 4.98638 7.93851 4.98638 7.47952C4.98638 7.02053 4.61429 6.64844 4.1553 6.64844C3.69631 6.64844 3.32422 7.02053 3.32422 7.47952C3.32422 7.93851 3.69631 8.3106 4.1553 8.3106Z" stroke="#282C5D" stroke-width="1.10811" stroke-linecap="round" stroke-linejoin="round"/>
<path d="M4.1553 14.128C4.61429 14.128 4.98638 13.7559 4.98638 13.2969C4.98638 12.8379 4.61429 12.4658 4.1553 12.4658C3.69631 12.4658 3.32422 12.8379 3.32422 13.2969C3.32422 13.7559 3.69631 14.128 4.1553 14.128Z" stroke="#282C5D" stroke-width="1.10811" stroke-linecap="round" stroke-linejoin="round"/>
<path d="M4.1553 19.9459C4.61429 19.9459 4.98638 19.5738 4.98638 19.1148C4.98638 18.6558 4.61429 18.2837 4.1553 18.2837C3.69631 18.2837 3.32422 18.6558 3.32422 19.1148C3.32422 19.5738 3.69631 19.9459 4.1553 19.9459Z" stroke="#282C5D" stroke-width="1.10811" stroke-linecap="round" stroke-linejoin="round"/>
</svg>
