<svg width="24" height="24" viewBox="0 0 24 24" fill="none" xmlns="http://www.w3.org/2000/svg">
<path d="M7.2 2H9.8C13 2 15 4 15 7.2V11.25H8.75C8.34 11.25 8 11.59 8 12C8 12.41 8.34 12.75 8.75 12.75H15V16.8C15 20 13 22 9.8 22H7.21C4.01 22 2.01 20 2.01 16.8V7.2C2 4 4 2 7.2 2Z" fill="#282C5D"/>
<path d="M19.4347 11.2498L17.3647 9.17984C17.2147 9.02984 17.1447 8.83984 17.1447 8.64984C17.1447 8.45984 17.2147 8.25984 17.3647 8.11984C17.6547 7.82984 18.1347 7.82984 18.4247 8.11984L21.7747 11.4698C22.0647 11.7598 22.0647 12.2398 21.7747 12.5298L18.4247 15.8798C18.1347 16.1698 17.6547 16.1698 17.3647 15.8798C17.0747 15.5898 17.0747 15.1098 17.3647 14.8198L19.4347 12.7498H14.9947V11.2498H19.4347Z" fill="#282C5D"/>
</svg>
