<svg width="27" height="28" viewBox="0 0 27 28" fill="none" xmlns="http://www.w3.org/2000/svg">
<path d="M0 3C0 1.34315 1.34315 0 3 0H9V28H3C1.34315 28 0 26.6569 0 25V3Z" fill="#54678C"/>
<path d="M18 3C18 1.34315 16.6569 0 15 0H9V28H15C16.6569 28 18 26.6569 18 25V3Z" fill="#282C5D"/>
<path d="M15 3C15.5523 3 16 3.44772 16 4V24C16 24.5523 15.5523 25 15 25H9V6H11C11.5523 6 12 5.55228 12 5C12 4.44772 11.5523 4 11 4H9V3H15Z" fill="#D9E5FF"/>
<path d="M3 3C2.44772 3 2 3.44772 2 4V24C2 24.5523 2.44772 25 3 25H9V6H7C6.44772 6 6 5.55228 6 5C6 4.44772 6.44772 4 7 4H9V3H3Z" fill="#ECF2FF"/>
<path d="M21.1818 8.08696H18V11.913H21.1818C21.458 11.913 21.6818 12.1369 21.6818 12.413V12.972C21.6818 13.3891 22.1624 13.6228 22.4905 13.3653L26.4767 10.2368C26.7386 10.0313 26.7302 9.63201 26.46 9.43759L22.4738 6.56979C22.1431 6.33183 21.6818 6.5682 21.6818 6.97567V7.58696C21.6818 7.8631 21.458 8.08696 21.1818 8.08696Z" fill="#FAB400"/>
<path d="M21.1818 17.087H18V20.913H21.1818C21.458 20.913 21.6818 21.1369 21.6818 21.413V21.972C21.6818 22.3891 22.1624 22.6228 22.4905 22.3653L26.4767 19.2368C26.7386 19.0313 26.7302 18.632 26.46 18.4376L22.4738 15.5698C22.1431 15.3318 21.6818 15.5682 21.6818 15.9757V16.587C21.6818 16.8631 21.458 17.087 21.1818 17.087Z" fill="#FAB400"/>
<path d="M6.80083 16.3691C7.2161 16.3691 7.51574 16.7219 7.66997 17.1074C7.74809 17.3027 7.85358 17.459 7.98638 17.5762C8.11918 17.6894 8.26765 17.7695 8.43169 17.8164C8.59574 17.8633 8.76179 17.8867 8.92974 17.8867C8.95354 17.8867 8.97696 17.8835 9.00005 17.8828V20.2422C8.98267 20.2442 8.96525 20.248 8.94732 20.248C8.69817 20.248 8.49615 20.046 8.49615 19.7969V19.0967C8.28787 19.074 8.0806 19.0378 7.87505 18.9824C7.52742 18.8887 7.21098 18.7363 6.92583 18.5254C6.6446 18.3106 6.41997 18.0273 6.25201 17.6758C6.17557 17.514 6.1169 17.3356 6.07525 17.1406C5.98569 16.7213 6.34767 16.3692 6.77642 16.3691H6.80083ZM9.00005 11.582C8.99617 11.582 8.99223 11.582 8.98833 11.582C8.73055 11.582 8.51762 11.6309 8.34966 11.7285C8.18562 11.8262 8.0645 11.959 7.98638 12.127C7.91217 12.2949 7.87505 12.4883 7.87505 12.707C7.87505 12.918 7.91412 13.1035 7.99224 13.2637C8.07427 13.4199 8.21101 13.5625 8.4024 13.6914C8.55647 13.7931 8.75604 13.8949 9.00005 13.999V15.4395C8.94913 15.4193 8.89655 15.3987 8.84185 15.3789C8.33796 15.1953 7.89653 14.9941 7.51763 14.7754C7.13874 14.5527 6.8438 14.2773 6.63287 13.9492C6.42584 13.6211 6.32232 13.207 6.32232 12.707C6.32232 12.2266 6.43366 11.8105 6.6563 11.459C6.88286 11.1035 7.19734 10.8301 7.59966 10.6387C7.89815 10.4938 8.23218 10.4026 8.60162 10.3652V9.56348C8.60162 9.33161 8.77563 9.14181 9.00005 9.11426V11.582Z" fill="#DC9600"/>
<path d="M9.20508 14.084C9.71289 14.2715 10.1543 14.4785 10.5293 14.7051C10.9043 14.9277 11.1953 15.2012 11.4023 15.5254C11.6094 15.8496 11.7129 16.2598 11.7129 16.7559C11.7129 17.2637 11.5957 17.6934 11.3613 18.0449C11.1309 18.3965 10.8066 18.6641 10.3887 18.8477C10.0929 18.9776 9.76268 19.0597 9.39844 19.0977V19.7969C9.39844 20.0281 9.22417 20.2159 9 20.2422V17.8828C9.24216 17.8754 9.44534 17.8317 9.60938 17.7461C9.79297 17.6523 9.92969 17.5215 10.0195 17.3535C10.1133 17.1816 10.1602 16.9863 10.1602 16.7676C10.1602 16.5449 10.1172 16.3516 10.0312 16.1875C9.94922 16.0234 9.81055 15.877 9.61523 15.748C9.45613 15.6409 9.25087 15.5385 9 15.4395V13.999C9.0653 14.0269 9.13334 14.0559 9.20508 14.084ZM9.05566 9.10938C9.30646 9.10938 9.50977 9.31268 9.50977 9.56348V10.3828C9.72479 10.4134 9.9262 10.4619 10.1133 10.5332C10.4453 10.6543 10.7285 10.832 10.9629 11.0664C11.2012 11.3008 11.3828 11.5898 11.5078 11.9336C11.5555 12.0594 11.5949 12.1918 11.625 12.3311C11.7151 12.7486 11.3549 13.0996 10.9277 13.0996H10.8066C10.4466 13.0996 10.1731 12.8007 10.0723 12.4551C10.0176 12.2676 9.93945 12.1094 9.83789 11.9805C9.73633 11.8477 9.61328 11.748 9.46875 11.6816C9.33119 11.6167 9.17494 11.5834 9 11.582V9.11426C9.0183 9.11201 9.03676 9.10938 9.05566 9.10938Z" fill="#FAB400"/>
</svg>
