<svg width="22" height="23" viewBox="0 0 22 23" fill="none" xmlns="http://www.w3.org/2000/svg">
<path d="M17.4206 14.4574C16.1028 14.461 14.8585 15.0562 14.0411 16.0743L8.45909 13.0212C8.81049 12.1073 8.81049 11.0985 8.45909 10.1846L14.0411 7.13151C14.9803 8.29393 16.452 8.9111 17.9539 8.77176C19.4559 8.63247 20.7848 7.75584 21.4869 6.44118C22.1893 5.12658 22.1693 3.55177 21.4345 2.2546C20.6999 0.957434 19.3494 0.113268 17.8442 0.0105077C16.3393 -0.0919959 14.8835 0.560534 13.9736 1.74539C13.064 2.93025 12.8238 4.48738 13.3351 5.88492L7.75309 8.93826C6.99954 8.00522 5.88541 7.42364 4.67827 7.33336C3.47113 7.24328 2.28027 7.65258 1.39253 8.46281C0.504538 9.27303 0 10.4111 0 11.6029C0 12.7947 0.504544 13.9327 1.39253 14.7429C2.28027 15.5532 3.47113 15.9625 4.67827 15.8724C5.88541 15.7821 6.99954 15.2005 7.75309 14.2675L13.3351 17.3208C12.9279 18.4694 13.0373 19.7345 13.6361 20.7985C14.235 21.8627 15.2662 22.6249 16.4711 22.8942C17.6761 23.1632 18.9404 22.9138 19.9471 22.2082C20.9538 21.5029 21.6071 20.4081 21.743 19.1991C21.8791 17.9898 21.485 16.7811 20.6596 15.8758C19.8345 14.9704 18.6561 14.4544 17.4206 14.4574Z" fill="#282C5D"/>
</svg>
